<svg xmlns="http://www.w3.org/2000/svg" fill="none" viewBox="0 0 24 24">
  <path d="M13 3.77h7.23v16.46H13V3.77z" stroke="#121019" stroke-width="2"/>
  <mask id="QMzwQi1IZsa" fill="#fff">
    <path d="M3 5a2 2 0 012-2h3a2 2 0 012 2v12.388a1 1 0 01-.21.614l-2.5 3.214a1 1 0 01-1.58 0l-2.5-3.214a1 1 0 01-.21-.614V5z"/>
  </mask>
  <path d="M7.29 21.216l-1.58-1.228 1.58 1.228zM5 5h3V1H5v4zm3 0v12.388h4V5H8zM5 17.388V5H1v12.388h4zm3.21-.614l-2.5 3.214 3.158 2.456 2.5-3.214-3.157-2.456zm-.92 3.214l-2.5-3.214-3.158 2.456 2.5 3.214 3.157-2.456zm-1.58 0a1 1 0 011.58 0l-3.158 2.456a3 3 0 004.736 0l-3.157-2.456zM1 17.388a3 3 0 00.632 1.841l3.157-2.455a1 1 0 01.211.614H1zm7 0a1 1 0 01.21-.614l3.158 2.456A3 3 0 0012 17.388H8zM8 5h4a4 4 0 00-4-4v4zM5 1a4 4 0 00-4 4h4V1z" fill="#121019" mask="url(#QMzwQi1IZsa)"/>
  <path d="M4.827 16H9M4.827 7.385H9" stroke="#121019" stroke-width="2"/>
  <path d="M17 10.615h2.5M17 7.385h2.5M17 13.846h3m-3 3.231h2.5" stroke="#121019" stroke-width="2" stroke-linecap="round"/>
</svg>
