<svg xmlns="http://www.w3.org/2000/svg" fill="none" viewBox="0 0 120 29">
  <g clip-path="url(#rMAvm4MYQa)">
    <path d="M109.93 6.766c-2.734 0-5.062.82-6.782 2.266a1.975 1.975 0 00-.885-.927C100.144 7 97.898 6.768 96.389 6.768c-3.03 0-5.625.929-7.508 2.687a8.835 8.835 0 00-1.097 1.23V9.04a1.93 1.93 0 00-.598-1.4c.675-.784 1.056-1.812 1.056-3.006C88.245 1.86 86.185 0 83.128 0c-1.465 0-2.715.41-3.626 1.183-.98.831-1.52 2.056-1.52 3.447a4.55 4.55 0 00.9 2.808 2.025 2.025 0 00-1.113-.332h-4.675c-.378 0-.748.107-1.066.306a7.896 7.896 0 00-3.14-.64c-2.53 0-4.88 1.071-6.615 3.017a8.17 8.17 0 00-.308.362 1.93 1.93 0 00-.226-1.184 1.983 1.983 0 00-.889-.83 14.797 14.797 0 00-6.285-1.36c-2.503 0-4.628.608-6.144 1.757a6.5 6.5 0 00-1.199 1.185 10.48 10.48 0 00-3.796-3.457c-1.74-.945-3.76-1.454-5.995-1.51h-.052c-.405 0-.801.12-1.134.347a1.957 1.957 0 00-.73.92c-1.5.146-2.954.586-4.277 1.294a9.518 9.518 0 00-3.74 3.627c-.08.136-.145.282-.19.433h-.02a7.713 7.713 0 00-1.21-2.022c-1.413-1.672-3.453-2.553-5.905-2.553a7.927 7.927 0 00-4.72 1.617c-1.292-1.06-2.931-1.617-4.816-1.617a7.282 7.282 0 00-2.956.601 2.014 2.014 0 00-1.007-.261H1.998c-.53 0-1.038.206-1.413.574A1.942 1.942 0 000 9.098v15.183c0 .52.21 1.018.585 1.386.375.368.883.574 1.413.574h4.676c.95 0 2.147-.653 2.348-1.526.059-.255.267-.255.319 0 .2.873 1.397 1.526 2.348 1.526h4.675c.953 0 2.15-.653 2.35-1.526.059-.255.26-.255.319 0 .2.873 1.396 1.526 2.348 1.526h4.676a2.02 2.02 0 001.115-.334 1.97 1.97 0 00.735-.89c.79.846 1.715 1.557 2.74 2.105 1.752.946 3.785 1.448 6.042 1.493h.042c.388 0 .768-.11 1.093-.32.326-.208.581-.506.736-.856 1.512-.15 2.977-.6 4.307-1.323a9.557 9.557 0 002.837-2.374c.05.322.18.626.38.886s.462.466.764.602c1.891.847 4.208 1.307 6.527 1.307 2.52 0 4.678-.58 6.24-1.673a6.436 6.436 0 001.974-2.186c.21.299.439.586.683.86 1.732 1.945 4.085 3.017 6.615 3.017a7.919 7.919 0 003.14-.64c.318.2.688.305 1.065.306h4.676c.474 0 .932-.166 1.292-.467.371.348.864.542 1.377.542h5.349c.53 0 1.038-.206 1.412-.574.375-.368.586-.867.586-1.387v-1.607c.333.455.712.877 1.13 1.26 1.852 1.691 4.426 2.584 7.442 2.584 2.246 0 4.318-.49 6.157-1.459.314-.166.578-.412.763-.712 1.712 1.382 3.987 2.162 6.651 2.162 6.022 0 10.069-3.983 10.07-9.911a9.707 9.707 0 00-.765-3.783 9.874 9.874 0 00-2.182-3.206 10.085 10.085 0 00-3.267-2.143 10.237 10.237 0 00-3.853-.754z" fill="#fff"/>
    <path d="M1.998 9.088h4.676v1.549c.799-1.063 2.131-1.884 3.963-1.884 2.23 0 3.839 1.003 4.795 2.674.995-1.853 3.132-2.669 4.74-2.669 3.779 0 5.885 2.644 5.885 6.867v8.66H21.38v-7.869c0-2.222-.65-3.495-2.23-3.495-1.64 0-2.787 1.215-2.787 3.98v7.385H11.69v-7.87c0-2.222-.65-3.495-2.229-3.495-1.64 0-2.786 1.215-2.786 3.98v7.385H1.998V9.088zM53.37 24.576c4.204 0 7.005-1.794 7.005-5.081 0-2.838-2.344-4.095-5.512-4.752-1.37-.268-1.918-.627-1.918-1.166 0-.477.426-.896 1.614-.896a7.836 7.836 0 013.96 1.105l1.464-3.884a12.827 12.827 0 00-5.42-1.166c-4.233 0-6.67 1.943-6.67 4.968 0 2.84 2.316 4.064 5.269 4.691 1.465.33 1.949.628 1.949 1.255 0 .6-.548.987-1.705.987a10.82 10.82 0 01-4.812-1.136l-.914 3.946c1.732.77 3.773 1.129 5.69 1.129zM83.128 7.33c1.957 0 3.119-1.02 3.119-2.7 0-1.68-1.162-2.67-3.119-2.67-1.986 0-3.147.99-3.147 2.67s1.161 2.7 3.147 2.7zm2.659 1.708h-5.348v15.297h5.348V9.038zm10.571 15.573c1.799 0 3.566-.36 5.213-1.226l-1.466-3.829a6.462 6.462 0 01-3.109.785c-2.316 0-3.596-1.197-3.596-3.679 0-2.454 1.341-3.62 3.414-3.62a5.662 5.662 0 012.93.785l1.586-3.978c-1.495-.785-3.263-1.109-4.938-1.109-5.092 0-8.444 3.083-8.444 7.929-.003 5.1 3.411 7.942 8.41 7.942zM73.094 9.067v1.522c-.62-.821-2.132-1.854-4.211-1.854-4.056 0-7.184 3.616-7.184 7.93 0 4.316 3.128 7.932 7.184 7.932 2.074 0 3.597-1.034 4.21-1.855v1.52h4.676V9.067h-4.675zm-3.16 11.365c-2.105 0-3.53-1.58-3.53-3.767s1.425-3.77 3.53-3.77c2.105 0 3.53 1.581 3.53 3.77 0 2.188-1.423 3.767-3.53 3.767zM109.93 8.727c-4.905 0-8.073 3.08-8.073 7.923 0 4.872 3.168 7.952 8.073 7.952 4.904 0 8.072-3.08 8.072-7.952 0-4.843-3.168-7.923-8.072-7.923zm0 11.684c-2.106 0-3.53-1.58-3.53-3.769 0-2.188 1.424-3.767 3.53-3.767s3.528 1.58 3.528 3.767c0 2.189-1.424 3.77-3.528 3.77z" fill="#1F3047"/>
    <path d="M31.336 13.904l-2.438-1.371a9.795 9.795 0 00-.871 4.183 9.893 9.893 0 00.867 4.192l2.428-1.382a6.968 6.968 0 01-.551-2.806 6.876 6.876 0 01.565-2.816z" fill="#163F37"/>
    <path d="M42.76 19.525l2.397 1.345a9.902 9.902 0 00.852-4.154 9.795 9.795 0 00-.89-4.223l-2.391 1.364c.403.903.606 1.88.594 2.867a6.96 6.96 0 01-.562 2.8z" fill="#410189"/>
    <path d="M37.423 22.883l.023 2.67c3.39-.116 5.986-1.587 7.389-4.052l-2.398-1.346c-.975 1.642-2.73 2.629-5.014 2.728z" fill="#3B6479"/>
    <path d="M36.66 10.58V7.905c-3.405.097-6.013 1.558-7.434 4.006l2.436 1.368c.983-1.625 2.73-2.601 4.998-2.7z" fill="#1A733F"/>
    <path d="M33.75 15.26l-2.414-1.356a6.875 6.875 0 00-.565 2.816 6.97 6.97 0 00.557 2.806l2.414-1.371a4.56 4.56 0 01.013-2.894h-.006z" fill="#197D6A"/>
    <path d="M36.66 12.98v-2.4c-2.264.099-4.015 1.075-4.998 2.7l2.383 1.34a3.267 3.267 0 011.099-1.14 3.345 3.345 0 011.516-.5z" fill="#14B858"/>
    <path d="M40.337 18.159l2.423 1.366a6.961 6.961 0 00.556-2.805 6.825 6.825 0 00-.588-2.863l-2.414 1.371c.33.95.337 1.98.023 2.935v-.004z" fill="#A160EC"/>
    <path d="M40.012 14.587l2.383-1.354c-.995-1.61-2.75-2.57-5.021-2.656v2.401a3.35 3.35 0 011.523.482c.46.28.843.668 1.115 1.127z" fill="#CE68D1"/>
    <path d="M37.405 20.48l.018 2.403c2.283-.1 4.04-1.086 5.02-2.733l-2.398-1.347a3.268 3.268 0 01-1.104 1.167 3.346 3.346 0 01-1.536.51z" fill="#83C1E2"/>
    <path d="M34.024 18.8l-2.378 1.352c.987 1.657 2.759 2.646 5.062 2.735l-.02-2.405a3.349 3.349 0 01-1.55-.508 3.27 3.27 0 01-1.114-1.175z" fill="#43A2D4"/>
    <path d="M37.374 6.713v3.864c2.271.086 4.026 1.046 5.02 2.656l3.441-1.96c-1.61-2.803-4.58-4.464-8.461-4.56z" fill="#BB32C0"/>
    <path d="M36.73 26.654l-.02-3.767c-2.305-.089-4.077-1.078-5.061-2.735l-3.438 1.95c1.614 2.815 4.61 4.474 8.52 4.552z" fill="#3684AD"/>
  </g>
  <defs>
    <clipPath id="rMAvm4MYQa">
      <path fill="#fff" d="M0 0h120v28.615H0z"/>
    </clipPath>
  </defs>
</svg>
